<svg xmlns="http://www.w3.org/2000/svg" viewBox="0 0 50.377 50.375"><defs><style>.a{fill:#2A4765;}</style></defs><g transform="translate(0 0)"><path class="a" d="M50.375,565.26A24.8,24.8,0,0,0,42.867,547.6a25.2,25.2,0,1,0-17.7,43.141h.318a25.115,25.115,0,0,0,24.89-25.484Zm-8.357,16.872a23.237,23.237,0,0,1-16.554,7.01,23.592,23.592,0,1,1-.551-47.181h.3a23.455,23.455,0,0,1,16.544,6.776,23.24,23.24,0,0,1,7.031,16.533A23.48,23.48,0,0,1,42.018,582.133Z" transform="translate(0 -540.369)"/><path class="a" d="M88.6,583.3a20.978,20.978,0,0,0-30.044,8.664.794.794,0,1,0,1.432.689,19.377,19.377,0,0,1,34.932,0,.812.812,0,0,0,.721.445h0a.755.755,0,0,0,.339-.074.8.8,0,0,0,.371-1.061A21.094,21.094,0,0,0,88.6,583.3Z" transform="translate(-52.276 -575.876)"/><path class="a" d="M240.8,689.944l-8.229,8.229a.8.8,0,0,0,0,1.124.786.786,0,0,0,.562.233.752.752,0,0,0,.562-.233l8.229-8.229a.795.795,0,1,0-1.124-1.124Z" transform="translate(-207.703 -673.875)"/><path class="a" d="M199.581,734.988a.8.8,0,0,0-.8.8,3.466,3.466,0,0,1-3.415,3.4,3.366,3.366,0,0,1-3.383-3.319v-.032a3.4,3.4,0,0,1,.944-2.471,3.155,3.155,0,0,1,2.291-.986.8.8,0,0,0,0-1.591,4.751,4.751,0,0,0-3.436,1.474,5.032,5.032,0,0,0-1.389,3.616,4.963,4.963,0,0,0,4.995,4.9h.021a5.066,5.066,0,0,0,4.963-4.995A.8.8,0,0,0,199.581,734.988Z" transform="translate(-170.204 -710.594)"/></g></svg>