<svg xmlns="http://www.w3.org/2000/svg" viewBox="0 0 33.222 23.043"><defs><style>.a{fill:#20a598;}</style></defs><g transform="translate(0 -78.439)"><g transform="translate(0 88.618)"><g transform="translate(0 0)"><path class="a" d="M31.88,235.318H1.342a1.342,1.342,0,1,0,0,2.684H31.88a1.342,1.342,0,1,0,0-2.684Z" transform="translate(0 -235.318)"/></g></g><g transform="translate(0 78.439)"><g transform="translate(0 0)"><path class="a" d="M31.88,78.439H1.342a1.342,1.342,0,0,0,0,2.684H31.88a1.342,1.342,0,0,0,0-2.684Z" transform="translate(0 -78.439)"/></g></g><g transform="translate(0 98.798)"><g transform="translate(0 0)"><path class="a" d="M31.88,392.2H1.342a1.342,1.342,0,1,0,0,2.684H31.88a1.342,1.342,0,1,0,0-2.684Z" transform="translate(0 -392.197)"/></g></g></g></svg>